<svg xmlns="http://www.w3.org/2000/svg" viewBox="0 0 24 24">
  <rect width="24" height="24" rx="4.5" fill="#1a1a1a"/>
  <g transform="translate(12 12) scale(0.8) translate(-12 -12)" fill="none" stroke="#5A97F2" stroke-width="2" stroke-linecap="round" stroke-linejoin="round">
    <!-- 8 dashes from Lucide circle-dashed (r=10 from center 12,12) -->
    <path d="M10.1 2.182a10 10 0 0 1 3.8 0" />
    <path d="M13.9 21.818a10 10 0 0 1-3.8 0" />
    <path d="M17.609 3.721a10 10 0 0 1 2.69 2.7" />
    <path d="M2.182 13.9a10 10 0 0 1 0-3.8" />
    <path d="M20.279 17.609a10 10 0 0 1-2.7 2.69" />
    <path d="M21.818 10.1a10 10 0 0 1 0 3.8" />
    <path d="M3.721 6.391a10 10 0 0 1 2.7-2.69" />
    <path d="M6.391 20.279a10 10 0 0 1-2.69-2.7" />
    <!-- "Heads" — filled dots at r=8 from center, aligned with each dash -->
    <circle cx="12"    cy="4"     r="1.6" fill="#5A97F2" stroke="none"/>
    <circle cx="17.66" cy="6.34"  r="1.6" fill="#5A97F2" stroke="none"/>
    <circle cx="20"    cy="12"    r="1.6" fill="#5A97F2" stroke="none"/>
    <circle cx="17.66" cy="17.66" r="1.6" fill="#5A97F2" stroke="none"/>
    <circle cx="12"    cy="20"    r="1.6" fill="#5A97F2" stroke="none"/>
    <circle cx="6.34"  cy="17.66" r="1.6" fill="#5A97F2" stroke="none"/>
    <circle cx="4"     cy="12"    r="1.6" fill="#5A97F2" stroke="none"/>
    <circle cx="6.34"  cy="6.34"  r="1.6" fill="#5A97F2" stroke="none"/>
  </g>
</svg>
